PathFileType	3	(X/Y/Z)	feet_movements_1__fused_aligned.trc
DataRate	CameraRate	NumFrames	NumMarkers	Units	OrigDataRate	OrigDataStartFrame	OrigNumFrames
100.0	100.0	17	19	mm	100.0	181	1830
Frame#	Time	pelvis			neck			head			hip_left			hip_right			knee_left			knee_right			ankle_left			ankle_right			heel_left			heel_right			toe_left			toe_right			shoulder_left			shoulder_right			elbow_left			elbow_right			wrist_left			wrist_right			
		X1	Y1	Z1	X2	Y2	Z2	X3	Y3	Z3	X4	Y4	Z4	X5	Y5	Z5	X6	Y6	Z6	X7	Y7	Z7	X8	Y8	Z8	X9	Y9	Z9	X10	Y10	Z10	X11	Y11	Z11	X12	Y12	Z12	X13	Y13	Z13	X14	Y14	Z14	X15	Y15	Z15	X16	Y16	Z16	X17	Y17	Z17	X18	Y18	Z18	X19	Y19	Z19	
181	1.80000	33.368453	940.902110	367.499893	85.849272	1508.080280	362.987880	102.050273	1647.161929	256.863656	-46.142239	942.810032	360.987442	112.878728	938.994207	374.012444	-137.584884	543.457533	253.189355	80.122221	515.469671	391.869012	-191.377264	161.948781	366.527275	25.276532	129.557912	493.928833	-192.233808	119.750601	407.046269	11.074320	85.172320	532.237080	-200.502390	80.095504	190.000060	63.223011	56.019066	315.520169	-96.710518	1483.615766	383.914295	256.466070	1437.890978	398.437608	-270.353898	1269.976585	277.917637	356.083302	1205.112750	272.337476	-313.844947	1326.430723	41.418412	324.074567	1352.677045	92.085651
182	1.81000	32.415168	941.020407	367.835234	85.277081	1508.178972	363.069824	101.496103	1647.523866	257.257026	-47.149252	943.006249	361.379708	111.979243	939.034581	374.290837	-138.978530	543.245808	254.577319	78.883352	515.522078	392.166038	-193.180172	161.453580	366.896505	23.920300	129.522173	493.837888	-194.095007	119.117383	407.309463	9.674622	85.113194	532.113427	-202.107323	80.026195	189.986712	61.961776	55.993349	315.366368	-97.711561	1484.041641	383.155523	256.472560	1437.769807	397.258408	-267.532213	1268.672377	275.962829	351.398264	1203.409436	270.404724	-300.056979	1325.600105	42.076860	312.753238	1349.359889	90.812651
183	1.82000	31.461884	941.138704	368.170574	84.704891	1508.277663	363.151767	100.941932	1647.885803	257.650396	-48.156266	943.202467	361.771973	111.079758	939.074955	374.569230	-140.372176	543.034083	255.965282	77.644483	515.574485	392.463064	-194.983080	160.958378	367.265735	22.564069	129.486435	493.746943	-195.956206	118.484165	407.572658	8.274924	85.054068	531.989773	-203.712256	79.956886	189.973365	60.700540	55.967631	315.212568	-98.712604	1484.467515	382.396752	256.479050	1437.648636	396.079209	-264.710528	1267.368169	274.008021	346.713226	1201.706123	268.471972	-286.269011	1324.769488	42.735307	301.431908	1346.042734	89.539650
184	1.83000	30.508599	941.257001	368.505915	84.132701	1508.376354	363.233710	100.387761	1648.247740	258.043767	-49.163280	943.398684	362.164238	110.180273	939.115328	374.847622	-141.765822	542.822358	257.353245	76.405614	515.626891	392.760089	-196.785988	160.463177	367.634965	21.207837	129.450696	493.655998	-197.817405	117.850947	407.835852	6.875226	84.994941	531.866120	-205.317189	79.887577	189.960017	59.439305	55.941914	315.058767	-99.713647	1484.893389	381.637980	256.485541	1437.527465	394.900009	-261.888844	1266.063961	272.053213	342.028188	1200.002809	266.539220	-272.481043	1323.938871	43.393755	290.110578	1342.725578	88.266650
185	1.84000	29.555315	941.375298	368.841255	83.560510	1508.475046	363.315654	99.833590	1648.609677	258.437137	-50.170293	943.594902	362.556504	109.280788	939.155702	375.126015	-143.159468	542.610633	258.741208	75.166746	515.679298	393.057115	-198.588896	159.967975	368.004195	19.851605	129.414957	493.565053	-199.678604	117.217729	408.099046	5.475528	84.935815	531.742466	-206.922122	79.818268	189.946669	58.178069	55.916196	314.904966	-100.714690	1485.319264	380.879208	256.492031	1437.406294	393.720810	-259.067159	1264.759752	270.098405	337.343150	1198.299495	264.606468	-258.693075	1323.108254	44.052202	278.789248	1339.408423	86.993650
186	1.85000	28.602031	941.493595	369.176596	82.988320	1508.573737	363.397597	99.279419	1648.971614	258.830507	-51.177307	943.791120	362.948769	108.381302	939.196076	375.404408	-144.553114	542.398908	260.129171	73.927877	515.731705	393.354141	-200.391804	159.472774	368.373425	18.495374	129.379219	493.474108	-201.539803	116.584511	408.362241	4.075830	84.876688	531.618812	-208.527054	79.748960	189.933322	56.916833	55.890479	314.751166	-101.715733	1485.745138	380.120437	256.498522	1437.285123	392.541610	-256.245474	1263.455544	268.143597	332.658112	1196.596181	262.673716	-244.905106	1322.277637	44.710650	267.467919	1336.091267	85.720649
187	1.86000	27.648746	941.611892	369.511936	82.416129	1508.672429	363.479540	98.725248	1649.333551	259.223877	-52.184320	943.987337	363.341034	107.481817	939.236450	375.682801	-145.946760	542.187183	261.517134	72.689008	515.784111	393.651167	-202.194712	158.977572	368.742655	17.139142	129.343480	493.383163	-203.401002	115.951293	408.625435	2.676132	84.817562	531.495159	-210.131987	79.679651	189.919974	55.655598	55.864761	314.597365	-102.716776	1486.171012	379.361665	256.505012	1437.163952	391.362411	-253.423789	1262.151336	266.188789	327.973073	1194.892867	260.740964	-231.117138	1321.447019	45.369097	256.146589	1332.774111	84.447649
188	1.87000	26.695462	941.730189	369.847277	81.843939	1508.771120	363.561483	98.171077	1649.695488	259.617247	-53.191334	944.183555	363.733300	106.582332	939.276824	375.961193	-147.340406	541.975458	262.905097	71.450139	515.836518	393.948193	-203.997620	158.482370	369.111885	15.782910	129.307742	493.292218	-205.262201	115.318075	408.888629	1.276434	84.758435	531.371505	-211.736920	79.610342	189.906627	54.394362	55.839044	314.443565	-103.717818	1486.596887	378.602894	256.511503	1437.042781	390.183211	-250.602104	1260.847128	264.233981	323.288035	1193.189553	258.808212	-217.329170	1320.616402	46.027545	244.825259	1329.456956	83.174649
189	1.88000	25.742177	941.848486	370.182617	81.271749	1508.869811	363.643427	97.616906	1650.057425	260.010617	-54.198347	944.379772	364.125565	105.682847	939.317197	376.239586	-148.734052	541.763734	264.293060	70.211271	515.888925	394.245218	-205.800529	157.987169	369.481115	14.426679	129.272003	493.201273	-207.123401	114.684857	409.151824	-0.123265	84.699309	531.247852	-213.341853	79.541033	189.893279	53.133127	55.813326	314.289764	-104.718861	1487.022761	377.844122	256.517993	1436.921610	389.004012	-247.780419	1259.542920	262.279173	318.602997	1191.486239	256.875460	-203.541202	1319.785785	46.685992	233.503929	1326.139800	81.901648
190	1.89000	24.788893	941.966783	370.517958	80.699558	1508.968503	363.725370	97.062735	1650.419362	260.403988	-55.205361	944.575990	364.517831	104.783362	939.357571	376.517979	-150.127698	541.552009	265.681023	68.972402	515.941331	394.542244	-207.603437	157.491967	369.850345	13.070447	129.236265	493.110328	-208.984600	114.051639	409.415018	-1.522963	84.640183	531.124198	-214.946786	79.471724	189.879931	51.871891	55.787609	314.135963	-105.719904	1487.448635	377.085350	256.524484	1436.800439	387.824812	-244.958735	1258.238712	260.324365	313.917959	1189.782925	254.942708	-189.753234	1318.955168	47.344440	222.182600	1322.822644	80.628648
191	1.90000	23.835609	942.085080	370.853298	80.127368	1509.067194	363.807313	96.508565	1650.781299	260.797358	-56.212375	944.772207	364.910096	103.883877	939.397945	376.796372	-151.521344	541.340284	267.068986	67.733533	515.993738	394.839270	-209.406345	156.996766	370.219575	11.714215	129.200526	493.019382	-210.845799	113.418421	409.678212	-2.922661	84.581056	531.000544	-216.551719	79.402415	189.866584	50.610655	55.761891	313.982163	-106.720947	1487.874510	376.326579	256.530974	1436.679268	386.645613	-242.137050	1256.934504	258.369557	309.232921	1188.079611	253.009956	-175.965266	1318.124551	48.002887	210.861270	1319.505489	79.355648
192	1.91000	23.388224	942.226728	371.317967	79.899279	1509.194458	364.082649	96.267795	1651.076295	261.268578	-56.697506	944.964642	365.416807	103.474210	939.488809	377.219010	-152.272718	541.339813	267.965907	67.043713	516.065825	395.159338	-210.434843	156.805836	370.508847	10.872667	129.199120	493.053278	-211.909982	113.155778	409.915547	-3.799623	84.572067	531.017371	-217.446091	79.370087	189.950995	49.793227	55.702976	313.981831	-107.250376	1488.152800	376.025597	256.710013	1436.666086	386.118925	-240.018282	1255.916049	257.520164	306.317040	1186.825650	252.535774	-166.284171	1316.720029	48.938892	203.376812	1316.254945	79.067279
193	1.92000	22.940840	942.368375	371.782636	79.671189	1509.321721	364.357985	96.027026	1651.371292	261.739798	-57.182637	945.157077	365.923519	103.064544	939.579673	377.641649	-153.024092	541.339342	268.862827	66.353892	516.137913	395.479406	-211.463342	156.614906	370.798119	10.031118	129.197715	493.087173	-212.974166	112.893134	410.152882	-4.676585	84.563077	531.034198	-218.340463	79.337759	190.035407	48.975798	55.644061	313.981500	-107.779805	1488.431091	375.724615	256.889053	1436.652904	385.592236	-237.899515	1254.897595	256.670770	303.401159	1185.571689	252.061592	-156.603075	1315.315508	49.874897	195.892355	1313.004401	78.778911
194	1.93000	22.493456	942.510023	372.247306	79.443100	1509.448984	364.633321	95.786257	1651.666289	262.211017	-57.667769	945.349513	366.430230	102.654878	939.670537	378.064287	-153.775466	541.338871	269.759747	65.664072	516.210000	395.799474	-212.491840	156.423976	371.087391	9.189569	129.196309	493.121069	-214.038350	112.630491	410.390217	-5.553548	84.554088	531.051025	-219.234835	79.305430	190.119818	48.158370	55.585145	313.981169	-108.309234	1488.709381	375.423633	257.068092	1436.639722	385.065548	-235.780747	1253.879140	255.821377	300.485278	1184.317728	251.587410	-146.921980	1313.910987	50.810902	188.407897	1309.753858	78.490542
195	1.94000	22.046072	942.651671	372.711975	79.215011	1509.576247	364.908656	95.545488	1651.961285	262.682237	-58.152900	945.541948	366.936942	102.245211	939.761401	378.486926	-154.526841	541.338400	270.656667	64.974252	516.282087	396.119542	-213.520339	156.233046	371.376663	8.348020	129.194903	493.154964	-215.102534	112.367847	410.627552	-6.430510	84.545099	531.067852	-220.129207	79.273102	190.204230	47.340941	55.526230	313.980837	-108.838663	1488.987671	375.122651	257.247131	1436.626540	384.538859	-233.661980	1252.860686	254.971984	297.569398	1183.063767	251.113227	-137.240884	1312.506466	51.746907	180.923440	1306.503314	78.202174
196	1.95000	21.598688	942.793319	373.176644	78.986921	1509.703511	365.183992	95.304719	1652.256282	263.153457	-58.638031	945.734383	367.443653	101.835545	939.852265	378.909564	-155.278215	541.337929	271.553587	64.284431	516.354174	396.439611	-214.548838	156.042116	371.665935	7.506471	129.193498	493.188860	-216.166718	112.105203	410.864887	-7.307473	84.536109	531.084678	-221.023579	79.240774	190.288641	46.523512	55.467315	313.980506	-109.368093	1489.265962	374.821669	257.426171	1436.613358	384.012171	-231.543213	1251.842231	254.122591	294.653517	1181.809805	250.639045	-127.559789	1311.101945	52.682912	173.438982	1303.252770	77.913805
197	1.96000	21.151303	942.934966	373.641313	78.758832	1509.830774	365.459328	95.063949	1652.551279	263.624677	-59.123162	945.926818	367.950364	101.425878	939.943129	379.332203	-156.029589	541.337458	272.450508	63.594611	516.426262	396.759679	-215.577336	155.851186	371.955207	6.664923	129.192092	493.222755	-217.230901	111.842560	411.102222	-8.184435	84.527120	531.101505	-221.917951	79.208446	190.373053	45.706084	55.408399	313.980175	-109.897522	1489.544252	374.520687	257.605210	1436.600176	383.485483	-229.424445	1250.823776	253.273198	291.737636	1180.555844	250.164863	-117.878693	1309.697423	53.618917	165.954524	1300.002226	77.625437
